<?xml version="1.0" standalone="no"?>
<!DOCTYPE svg PUBLIC "-//W3C//DTD SVG 20010904//EN"
 "http://www.w3.org/TR/2001/REC-SVG-20010904/DTD/svg10.dtd">
<svg version="1.0" xmlns="http://www.w3.org/2000/svg"
 width="260.000000pt" height="260.000000pt" viewBox="0 0 260.000000 260.000000"
 preserveAspectRatio="xMidYMid meet">
<metadata>
Created by potrace 1.14, written by Peter Selinger 2001-2017
</metadata>
<g transform="translate(0.000000,260.000000) scale(0.100000,-0.100000)"
fill="#000000" stroke="none">
<path d="M1199 2469 c-463 -50 -670 -540 -360 -849 84 -84 161 -137 380 -262
277 -158 345 -214 384 -316 21 -54 22 -154 1 -215 -32 -94 -129 -172 -246
-197 -79 -18 -232 -7 -348 23 -74 19 -239 78 -322 115 -5 2 -8 -59 -8 -135 l0
-139 114 -27 c62 -15 122 -27 132 -28 11 0 -56 -14 -147 -29 -92 -16 -227 -45
-300 -65 -132 -37 -288 -90 -301 -103 -3 -4 9 -41 29 -83 l35 -77 91 33 c321
114 638 162 1011 152 334 -9 619 -64 901 -171 50 -19 96 -36 103 -38 8 -2 26
28 46 77 l34 80 -102 38 c-223 84 -459 143 -698 173 l-137 18 62 24 c269 108
405 340 356 608 -35 191 -162 317 -531 523 -325 181 -408 262 -408 397 0 129
95 227 251 260 111 23 250 1 473 -76 50 -16 91 -30 93 -30 2 0 2 57 1 127 l-3
127 -70 18 c-163 41 -386 62 -516 47z"/>
</g>
</svg>
