<svg xmlns="http://www.w3.org/2000/svg" xmlns:xlink="http://www.w3.org/1999/xlink" width="333.514" height="287.93" viewBox="0 0 333.514 287.93">
  <defs>
    <style>
      .cls-1 {
        fill: none;
      }

      .cls-2 {
        opacity: 0.5;
      }

      .cls-3 {
        clip-path: url(#clip-path);
      }

      .cls-4 {
        fill: #cdcdd8;
      }

      .cls-5 {
        fill: #65708e;
      }

      .cls-6 {
        fill: #fff;
      }
    </style>
    <clipPath id="clip-path">
      <rect id="Rectangle_379" data-name="Rectangle 379" class="cls-1" width="333.514" height="287.93"/>
    </clipPath>
  </defs>
  <g id="MessagesIllustration" class="cls-2">
    <g id="Group_249" data-name="Group 249" class="cls-3">
      <path id="Path_30" data-name="Path 30" class="cls-4" d="M261.917,697.48c-5.145-2.907-8.754-7.885-11.88-12.9s-7.95-11.981-12.222-16.062a39.113,39.113,0,0,0-10.992-7.8l-7.733,23.935a5.846,5.846,0,0,1,4.946,1.217c1.408,1.055-3.469,2.487-2.349,3.844,4.275,5.182,8.311,9.549,14.446,12.285.3.133,7.848.259,8.15.384h21.764a3.377,3.377,0,0,0-.889-2.735,12.241,12.241,0,0,0-3.241-2.166" transform="translate(-142.422 -429.505)"/>
      <path id="Path_31" data-name="Path 31" class="cls-4" d="M145.167,128.118H44.212a26.755,26.755,0,0,0-12.05,2.749,26.219,26.219,0,0,0-12.554,13.75,29.088,29.088,0,0,0-1.789,10.846V202.5a38.07,38.07,0,0,0,.6,8.191A26.16,26.16,0,0,0,28.729,226.28a25.824,25.824,0,0,0,8.7,4.032,30.392,30.392,0,0,0,7.493.788h5.285l-.506-.664a49.225,49.225,0,0,1-7.765,14.3.53.53,0,0,0,.511.877,49.551,49.551,0,0,0,25.138-14.666l-.372.154h77.56a26.815,26.815,0,0,0,10.445-2.02,26.254,26.254,0,0,0,15.937-24.04c.013-4.718,0-9.436,0-14.154V166.97c0-4.288.015-8.576,0-12.865a25.963,25.963,0,0,0-25.987-25.988.525.525,0,0,0,0,1.05,24.949,24.949,0,0,1,24.675,21.277,42.735,42.735,0,0,1,.263,6.313v34.267c0,4.7.017,9.391,0,14.087a24.945,24.945,0,0,1-20.865,24.611,34.977,34.977,0,0,1-5.8.328H70.561a28.665,28.665,0,0,0-3.317,0c-.072.009-.036-.023-.172.019-.3.093-.529.457-.739.679q-.512.54-1.04,1.064a48.515,48.515,0,0,1-13.207,9.323,47.279,47.279,0,0,1-9.919,3.465l.511.877a50.724,50.724,0,0,0,8.035-14.763.529.529,0,0,0-.506-.665c-4.31,0-8.692.276-12.9-.855A25.111,25.111,0,0,1,22.34,217.814a25.7,25.7,0,0,1-3.472-13.259V170.013c0-5.512-.129-11.041.008-16.551a24.938,24.938,0,0,1,24.932-24.294c3.3-.012,6.59,0,9.885,0h91.474a.525.525,0,0,0,0-1.05" transform="translate(-11.583 -83.284)"/>
      <path id="Path_32" data-name="Path 32" class="cls-4" d="M270.432,291.562c4.055,2.6,5.269-2.788,9.792-1.136,10.829,3.956,22.769,10.075,32.939,11.468a11.5,11.5,0,0,0,4.8-.142c3.15-.927,5.2-3.875,6.994-6.625l8.12-12.452c1.34-2.054,2.992-4.31,5.428-4.587,2.969-.338,5.438,2.648,5.8,5.613s-.731,5.886-1.552,8.759c-2.273,7.953-2.755,16.9-8.135,23.178-3.486,4.072-8.567,6.4-13.61,8.215-9.59,3.453-20.275,5.479-29.9,2.135-2.526-.877-5.089-2.131-7.736-1.755" transform="translate(-175.797 -180.756)"/>
      <path id="Path_33" data-name="Path 33" class="cls-5" d="M319.416,367.113l-9.474-.792c.734,3.749.87,7.591,1.509,11.356a30.282,30.282,0,0,0,1,4.2c1.463.374,2.906.991,4.336,1.488a35.736,35.736,0,0,0,16.939,1.237,61.862,61.862,0,0,1-14.309-17.486" transform="translate(-201.481 -238.13)"/>
      <path id="Path_34" data-name="Path 34" class="cls-4" d="M158.954,636.352c-1.648-1.116-4.686-2.712-5.54-4.616-.7-1.567.384-3.314,1.419-4.685l-11.475-1.922c-1.641,2.746-3.394,5.605-6.153,7.222-3.658,2.143-7.768,3.35-11.318,5.749-8.016,5.414-8.433,15.628-8.06,24.381a71.739,71.739,0,0,0,1.43,11.512q.589,2.843,1.409,5.631c.187.635.994,2.277,1.444,3.569a48.921,48.921,0,0,0,4.081-3.946h39.251c.817-6.349.713-4.727,2.642-9.244,3-7.035,6.17-20.535.368-27.167-2.524-2.886-6.374-4.37-9.5-6.484" transform="translate(-76.535 -406.372)"/>
      <path id="Path_35" data-name="Path 35" class="cls-4" d="M743.182,534.164c-1.318-2.75-2.714-5.466-4.108-8.17l-10.315-20.012c-1.452-2.815-2.946-5.689-5.252-7.86-4.546-4.281-11.345-5.043-17.586-4.828-2.764.1-5.668.311-8.162-.884a13.109,13.109,0,0,1-4.132-3.508,41.208,41.208,0,0,1-6.917-11.5l-13.672,12.172c2.323.172,3.9,1.979,5.007,4.148a3.129,3.129,0,0,1-1.811,4.369c-6.933,2.348-13.869,5.366-17.9,11.339-4.222,6.251-4.281,14.32-4.192,21.863.035,2.965.075,5.952.387,8.9h48.816a48.8,48.8,0,0,0,24.906,14.531,49.3,49.3,0,0,1-7.9-14.531h6.4a25.355,25.355,0,0,0,16.434-6.02" transform="translate(-425.216 -310.336)"/>
      <path id="Path_36" data-name="Path 36" class="cls-6" d="M743.182,557.583c-1.318-2.749-2.714-5.466-4.108-8.17L728.759,529.4c-1.452-2.815-2.946-5.689-5.252-7.86-4.546-4.281-11.345-5.043-17.586-4.828-2.764.1-5.668.311-8.162-.884a11.03,11.03,0,0,1-3.14-2.406,57.551,57.551,0,0,0-9.715,6.14,5,5,0,0,1-1.065,3.505,6.529,6.529,0,0,0-5.469-4.278,3.159,3.159,0,0,1-2.136,2.715c-6.933,2.348-13.869,5.366-17.9,11.339-4.222,6.251-4.281,14.32-4.192,21.863.035,2.965.075,5.953.387,8.9h48.816a48.8,48.8,0,0,0,24.906,14.531,49.3,49.3,0,0,1-7.9-14.531h6.4a25.355,25.355,0,0,0,16.434-6.02" transform="translate(-425.216 -333.755)"/>
      <path id="Path_37" data-name="Path 37" class="cls-5" d="M681.914,607.719a56.083,56.083,0,0,0,3.746,16.689c.244.621,1.26.351,1.012-.279a55.167,55.167,0,0,1-3.709-16.409c-.046-.671-1.1-.675-1.05,0" transform="translate(-443.284 -394.726)"/>
      <path id="Path_38" data-name="Path 38" class="cls-5" d="M832.523,610.076l7.156,15.512c.283.613,1.188.08.907-.53l-7.156-15.512c-.282-.613-1.188-.08-.906.53" transform="translate(-541.154 -396.065)"/>
      <path id="Path_39" data-name="Path 39" class="cls-5" d="M742.659,556.354c-2.29-4.772-4.77-9.454-7.194-14.158l-7.229-14.024a39.442,39.442,0,0,0-3.456-5.845,16.036,16.036,0,0,0-4.586-4.156c-3.552-2.108-7.765-2.813-11.839-2.955-2.479-.086-4.96.185-7.437.057a10.213,10.213,0,0,1-3.8-.83,10.649,10.649,0,0,1-3.1-2.357.541.541,0,0,0-.636-.082,46.3,46.3,0,0,0-6.843,4.066q-.812.567-1.611,1.15-.4.29-.8.583c-.215.158-.57.336-.678.592a2.748,2.748,0,0,0-.035.851,4.274,4.274,0,0,1-.133.857,4.487,4.487,0,0,1-.788,1.629l.877.232a7.107,7.107,0,0,0-5.975-4.664c-.3-.033-.5.268-.525.525a2.655,2.655,0,0,1-1.168,1.92,11.706,11.706,0,0,1-2.459.943c-1.688.607-3.359,1.267-4.99,2.015a30.221,30.221,0,0,0-8.719,5.747,21.414,21.414,0,0,0-5.42,9.176,41.641,41.641,0,0,0-1.468,10.993c-.051,2.172-.021,4.346.01,6.519.037,2.5.109,5.009.369,7.5a.537.537,0,0,0,.525.525h46.829a16.421,16.421,0,0,0,1.9,0,.761.761,0,0,1,.085,0l-.371-.154a49.838,49.838,0,0,0,18.871,12.772,47.374,47.374,0,0,0,6.267,1.894.53.53,0,0,0,.511-.877,48.953,48.953,0,0,1-7.765-14.3l-.506.664h6.021a26.82,26.82,0,0,0,11-2.269,26.214,26.214,0,0,0,6.184-3.9c.518-.436-.228-1.175-.742-.743a25.056,25.056,0,0,1-11.4,5.432,43.449,43.449,0,0,1-8.218.434h-2.845a.529.529,0,0,0-.506.665,50.442,50.442,0,0,0,8.035,14.763l.511-.877a47.568,47.568,0,0,1-13.485-5.366,48.5,48.5,0,0,1-5.993-4.148q-1.414-1.148-2.741-2.4-.662-.624-1.3-1.273-.307-.311-.608-.628a3.464,3.464,0,0,0-.653-.667,1.613,1.613,0,0,0-.744-.072H656.562c-.951,0-1.937-.074-2.886,0-.042,0-.085,0-.127,0l.525.525a112.692,112.692,0,0,1-.4-12.6,45.929,45.929,0,0,1,1.18-11.154,20.734,20.734,0,0,1,5.134-9.4,28.77,28.77,0,0,1,8.6-5.785c1.825-.847,3.7-1.57,5.6-2.236a7.008,7.008,0,0,0,2.55-1.2,3.773,3.773,0,0,0,1.179-2.435l-.525.525a6.013,6.013,0,0,1,4.962,3.893c.114.33.616.569.877.232a5.641,5.641,0,0,0,1.219-3.876l-.26.453a57.994,57.994,0,0,1,9.715-6.14l-.636-.082a10.488,10.488,0,0,0,5.88,3.307,37.163,37.163,0,0,0,6.761.112c4.066-.07,8.324.273,12.076,1.962a14.992,14.992,0,0,1,5.012,3.6,26.688,26.688,0,0,1,3.631,5.553c2.413,4.574,4.745,9.193,7.114,13.79,2.7,5.229,5.461,10.429,8.007,15.734.292.609,1.2.077.906-.53" transform="translate(-424.24 -332.791)"/>
      <path id="Path_40" data-name="Path 40" class="cls-4" d="M220.354,282.4c-1.947-5.211-5.185-10.113-9.9-13.059-5.216-3.257-12.01-4.035-16.224-8.514a12.578,12.578,0,0,1-3.31-7.141c-.2-1.719.314-2.27,1.726-3.014-4.382-1.607-8.144-4.754-12.076-7.269l-5.62,2.67a56.16,56.16,0,0,1,2.482,8.086,14.513,14.513,0,0,1,.435,5.452,13.556,13.556,0,0,1-2.465,5.419c-4.142,6.018-10.091,10.739-13.538,17.18-3.76,7.025-4.13,15.351-3.195,23.307h65.512a30.415,30.415,0,0,0-.347-6.833c-.75-5.512-1.529-11.074-3.477-16.285" transform="translate(-102.86 -158.226)"/>
      <path id="Path_41" data-name="Path 41" class="cls-5" d="M225.679,399.853a28.8,28.8,0,0,0,1.153,6.783.525.525,0,0,0,1.012-.279,27.577,27.577,0,0,1-1.115-6.5c-.033-.673-1.083-.676-1.05,0" transform="translate(-146.704 -259.599)"/>
      <path id="Path_42" data-name="Path 42" class="cls-5" d="M231.449,262.887a8.481,8.481,0,0,0,2.867,1.514,12.5,12.5,0,0,1-1.063-3.792c-.2-1.719.314-2.27,1.726-3.014a31.745,31.745,0,0,1-6.579-3.542l-5.041.791c2.943,2.416,5.062,5.736,8.09,8.044" transform="translate(-145.197 -165.149)"/>
      <path id="Path_43" data-name="Path 43" class="cls-4" d="M792.311,163.866c-3.454-5.319-7.855-10.043-12.21-14.692-6.331-6.758-9.139-15.666-17.4-19.856a39.971,39.971,0,0,0-14.318-4.14,20.352,20.352,0,0,1-4.607-.7c-5.817-1.95-11.273-7.417-16.088-11.218L716.035,123.5c3.847-.8,8.251.943,9.775,4.685a6.045,6.045,0,0,1,.195,4.373c-.652,1.714-2.229,2.871-3.716,3.946-2.627,1.9-5.308,3.948-6.772,6.839a21.335,21.335,0,0,0-1.725,7.371q-1.435,12.931-2.87,25.863c-.048.435-.094.873-.127,1.312h35.363a48.8,48.8,0,0,0,24.907,14.531,49.288,49.288,0,0,1-7.9-14.531h6.4a25.456,25.456,0,0,0,22.747-14.024" transform="translate(-462.058 -73.626)"/>
      <path id="Path_44" data-name="Path 44" class="cls-5" d="M732.02,132.412a26.806,26.806,0,0,0,4.352-6.807l-5.2,1.177-5.4,4.743a9.437,9.437,0,0,1,6.248.887" transform="translate(-471.795 -81.651)"/>
      <path id="Path_45" data-name="Path 45" class="cls-4" d="M180.118,560.152c8.185,8.2,29.66,4.151,25.15-9.434-1.887-5.682-3.466-13.235-8.727-16.577a14.659,14.659,0,0,0-13.666-.949c-9.016,4.007-9.976,17.395-4.06,25.442a13.258,13.258,0,0,0,1.3,1.517" transform="translate(-113.817 -345.792)"/>
      <path id="Path_46" data-name="Path 46" class="cls-5" d="M177.274,535.155c.892,3.535,1.312,4.426-1.159,7.108-.622,2.5-2.159,4.407-1.106,6.915a37.143,37.143,0,0,0,3.6,6.279c1.259,1.868,2.988,3.829,3.734,5.976a3.59,3.59,0,0,1-.072,2.8c-.873,1.689-3.211,2.092-4.887,2.475a31.582,31.582,0,0,1-6.042.772,32.882,32.882,0,0,1-11.995-1.873,31.359,31.359,0,0,1-7.37-3.762,2.706,2.706,0,0,1-.9-.875,2.83,2.83,0,0,1-.019-1.98q1.208-5.089,2.7-10.105c1.693-5.7,3.96-11.727,8.91-15.02a3.468,3.468,0,0,0,1.024-.864,5.347,5.347,0,0,0,.408-.908c.791-1.84,2.913-2.69,4.877-3.079,5.317-1.054,9.249,1.318,14.582,2.289,1.011.184,1.014,1.1.622,1.868-.868,1.7-2.753,2.165-4.319,2.978a15.042,15.042,0,0,1-5.24,1.819" transform="translate(-98.079 -343.716)"/>
      <path id="Path_47" data-name="Path 47" class="cls-5" d="M243.9,571.51c-.129,0-.258,0-.387.006H243.5a.549.549,0,0,0-.318.113.9.9,0,0,0-.162.183c-.045.06-.089.12-.128.183a1.308,1.308,0,0,0-.2.638.622.622,0,0,0,0,.088,1.263,1.263,0,0,0,.037.225.946.946,0,0,0,.166.316.909.909,0,0,0,.738.344.991.991,0,0,0,.312-.052,1.107,1.107,0,0,0,.275-.134,1.474,1.474,0,0,0,.168-.135,1.353,1.353,0,0,0,.136-.167,1.022,1.022,0,0,0,.137-.28.565.565,0,0,0,.023-.1,1.189,1.189,0,0,0,.022-.233,1.04,1.04,0,0,0-.058-.323,1.281,1.281,0,0,0-.225-.388.962.962,0,0,0-.259-.213.544.544,0,0,0-.4-.053.525.525,0,0,0-.366.646.546.546,0,0,0,.241.314.7.7,0,0,1,.061.04l-.106-.082a.6.6,0,0,1,.1.1l-.082-.106a.648.648,0,0,1,.073.125l-.053-.125a.645.645,0,0,1,.043.153l-.019-.14a.6.6,0,0,1,0,.144l.019-.14a.56.56,0,0,1-.033.127l.053-.125a.59.59,0,0,1-.074.127l.082-.106a.652.652,0,0,1-.1.1l.106-.082a.647.647,0,0,1-.14.081l.125-.053a.607.607,0,0,1-.142.037l.14-.019a.568.568,0,0,1-.126,0l.14.019a.51.51,0,0,1-.118-.032l.125.053a.437.437,0,0,1-.073-.042l.106.082a.426.426,0,0,1-.061-.059l.082.106a.447.447,0,0,1-.057-.1l.053.125a.56.56,0,0,1-.032-.126c.006.047.013.093.019.14a.622.622,0,0,1,0-.147l-.019.14a.739.739,0,0,1,.051-.174l-.053.125a1.83,1.83,0,0,1,.228-.359l-.453.26.4-.007a.545.545,0,0,0,.371-.154.525.525,0,0,0-.371-.9" transform="translate(-157.766 -371.515)"/>
      <path id="Path_48" data-name="Path 48" class="cls-5" d="M254.559,568.042a19.427,19.427,0,0,0,1.005,3.272,12.842,12.842,0,0,0,1.281,2.62.539.539,0,0,0,.718.189.53.53,0,0,0,.188-.718,11.813,11.813,0,0,1-1.208-2.452,19.289,19.289,0,0,1-.973-3.19c-.134-.662-1.146-.381-1.012.279" transform="translate(-165.47 -368.834)"/>
      <path id="Path_49" data-name="Path 49" class="cls-5" d="M240.306,562.9c.1-.068.21-.131.32-.189l.125-.063c.018-.009.195-.085.087-.041a3.921,3.921,0,0,1,.642-.2c.053-.012.106-.022.16-.032.023,0,.216-.027.09-.015.108-.011.216-.021.324-.024s.217,0,.325,0c.062,0,.124.008.185.014l.092.011c-.063-.008-.063-.008,0,0A.538.538,0,0,0,243.3,562a.531.531,0,0,0-.366-.646,4.487,4.487,0,0,0-3.157.641.525.525,0,0,0,.53.906" transform="translate(-155.699 -364.877)"/>
      <path id="Path_50" data-name="Path 50" class="cls-4" d="M209.845,583.67c1.562,1.565,5.66.792,4.8-1.8-.36-1.084-.661-2.526-1.665-3.163a2.8,2.8,0,0,0-2.607-.181c-1.721.765-1.9,3.319-.775,4.855a2.542,2.542,0,0,0,.248.289" transform="translate(-135.787 -375.921)"/>
      <path id="Path_51" data-name="Path 51" class="cls-5" d="M127.349,486.993H26.394a26.754,26.754,0,0,0-12.05,2.749A26.216,26.216,0,0,0,1.79,503.492,29.081,29.081,0,0,0,0,514.338v47.034a38.071,38.071,0,0,0,.6,8.191,26.162,26.162,0,0,0,10.311,15.592,25.827,25.827,0,0,0,8.7,4.032,30.4,30.4,0,0,0,7.493.788h5.286l-.506-.664a49.233,49.233,0,0,1-7.765,14.3.53.53,0,0,0,.511.877,49.548,49.548,0,0,0,25.138-14.666l-.371.154h77.56a26.815,26.815,0,0,0,10.445-2.019,26.254,26.254,0,0,0,15.937-24.04c.013-4.718,0-9.437,0-14.154V525.845c0-4.288.015-8.576,0-12.865a25.963,25.963,0,0,0-25.987-25.988.525.525,0,0,0,0,1.05,24.949,24.949,0,0,1,24.675,21.277,42.737,42.737,0,0,1,.263,6.313V549.9c0,4.7.016,9.391,0,14.087A24.945,24.945,0,0,1,131.422,588.6a34.985,34.985,0,0,1-5.8.328H52.744a28.692,28.692,0,0,0-3.318,0c-.072.009-.036-.023-.171.019-.3.093-.529.457-.739.679q-.512.54-1.04,1.064a48.982,48.982,0,0,1-4.081,3.621,48.7,48.7,0,0,1-9.126,5.7,47.276,47.276,0,0,1-9.919,3.465l.511.877a50.734,50.734,0,0,0,8.035-14.763.529.529,0,0,0-.506-.665c-4.311,0-8.693.276-12.9-.854A25.114,25.114,0,0,1,4.522,576.689,25.706,25.706,0,0,1,1.05,563.431V528.888c0-5.512-.129-11.041.008-16.552A24.938,24.938,0,0,1,25.99,488.043c3.3-.012,6.59,0,9.885,0h91.474a.525.525,0,0,0,0-1.05" transform="translate(0 -316.574)"/>
      <path id="Path_52" data-name="Path 52" class="cls-4" d="M705.435,434.4c-5.81,10.026-27.6,11.615-26.728-2.671.367-5.976-.043-13.682,4.186-18.26a14.658,14.658,0,0,1,12.966-4.42c9.742,1.562,14.1,14.256,10.446,23.551a13.308,13.308,0,0,1-.87,1.8" transform="translate(-441.183 -265.79)"/>
      <path id="Path_53" data-name="Path 53" class="cls-5" d="M686.568,415.1a4.67,4.67,0,0,1-2.33-3.608,11.07,11.07,0,0,1-3.6,1.584,2.352,2.352,0,0,1-1.845-.121c-.529-.351-.641-1.3-.065-1.564a5.078,5.078,0,0,0-2.54,3.175,4.421,4.421,0,0,1-2.138-3.98,3.8,3.8,0,0,1,2.688-3.177,1.777,1.777,0,0,1-1.14-2.291,3.752,3.752,0,0,1,1.981-2.011,9.075,9.075,0,0,1,6.451-.707c-.737.122-1.241-.9-.914-1.573a2.481,2.481,0,0,1,1.841-1.132c3.653-.735,7.33,1.207,10.167,3.622-.382-.721.473-1.616,1.284-1.527a2.426,2.426,0,0,1,1.757,1.545,23.762,23.762,0,0,0,.923,2.265,6.76,6.76,0,0,1,3.743,1.41,29.528,29.528,0,0,1,3.241,2.485,8.491,8.491,0,0,1,2.024,2.37,3.545,3.545,0,0,1,.221,3.022,2.273,2.273,0,0,1-2.548,1.333,2.708,2.708,0,0,1,1.19,2.187,1.444,1.444,0,0,1-1.782,1.332,2,2,0,0,1,.432,2.256,10.023,10.023,0,0,1-1.316,2.069,9.306,9.306,0,0,0-1.4,3.15,8.605,8.605,0,0,1-.473,1.725,1.805,1.805,0,0,1-1.319,1.1,2.334,2.334,0,0,1-1.9-1.072,11.515,11.515,0,0,1-1.976-3.46,18.258,18.258,0,0,0-1.112-2.986,3.018,3.018,0,0,0-2.528-1.684,4.844,4.844,0,0,1-1.208.052,2.252,2.252,0,0,1-1.076-.78l-2.145-2.337" transform="translate(-438.162 -259.726)"/>
      <path id="Path_54" data-name="Path 54" class="cls-5" d="M689.058,457.494l.389-.1-.511-.135a1.83,1.83,0,0,1,.315.292l-.082-.106a.738.738,0,0,1,.092.155l-.053-.126a.62.62,0,0,1,.037.134l-.019-.14a.543.543,0,0,1,0,.137l.019-.14a.455.455,0,0,1-.028.1l.053-.125a.414.414,0,0,1-.045.077l.082-.106a.436.436,0,0,1-.069.067l.106-.082a.5.5,0,0,1-.085.049l.125-.053a.56.56,0,0,1-.132.037l.14-.019a.621.621,0,0,1-.144,0l.139.019a.633.633,0,0,1-.154-.041l.125.053a.665.665,0,0,1-.138-.08l.106.082a.619.619,0,0,1-.092-.091l.082.106a.555.555,0,0,1-.073-.125l.053.125a.619.619,0,0,1-.036-.14l.019.14a.661.661,0,0,1,0-.145q-.009.07-.019.14a.669.669,0,0,1,.04-.154l-.053.126a.627.627,0,0,1,.072-.125l-.082.106a.639.639,0,0,1,.048-.054.541.541,0,0,0,.154-.371.534.534,0,0,0-.154-.371.527.527,0,0,0-.371-.154.545.545,0,0,0-.371.154.99.99,0,0,0-.184.246,1.06,1.06,0,0,0-.107.29,1.124,1.124,0,0,0-.023.313,1.481,1.481,0,0,0,.032.211,1.246,1.246,0,0,0,.081.207.958.958,0,0,0,.177.251,1.022,1.022,0,0,0,.243.189,1.085,1.085,0,0,0,.288.115,1.066,1.066,0,0,0,.3.032,1.1,1.1,0,0,0,.371-.087.835.835,0,0,0,.318-.218.9.9,0,0,0,.206-.378,1.016,1.016,0,0,0,.015-.384,1.191,1.191,0,0,0-.312-.637,1.5,1.5,0,0,0-.162-.154l-.081-.065a1.329,1.329,0,0,0-.14-.108.563.563,0,0,0-.4-.053c-.13.028-.259.064-.389.1a.525.525,0,0,0,.279,1.012" transform="translate(-447.39 -296.668)"/>
      <path id="Path_55" data-name="Path 55" class="cls-5" d="M676.818,455.721a19.349,19.349,0,0,1-.122,3.329,11.84,11.84,0,0,1-.54,2.678.53.53,0,0,0,.367.646.536.536,0,0,0,.646-.367,12.885,12.885,0,0,0,.566-2.863,19.432,19.432,0,0,0,.133-3.423c-.04-.671-1.09-.676-1.05,0" transform="translate(-439.526 -295.918)"/>
      <path id="Path_56" data-name="Path 56" class="cls-5" d="M686.949,446.841a4.49,4.49,0,0,0-3.216.191.527.527,0,0,0-.188.718.541.541,0,0,0,.718.188c.056-.025.059-.026.009,0l.091-.035c.045-.017.092-.033.138-.048q.162-.054.329-.092c.111-.026.223-.047.336-.063-.113.016.057,0,.079-.006.057,0,.114-.009.17-.011.114,0,.228,0,.342,0l.146.009c.02,0,.219.026.1.008a3.921,3.921,0,0,1,.664.158.529.529,0,0,0,.646-.367.537.537,0,0,0-.367-.646" transform="translate(-444.299 -290.335)"/>
      <path id="Path_57" data-name="Path 57" class="cls-4" d="M725.946,456.662c-1.109,1.913-5.267,2.216-5.1-.51.07-1.14-.008-2.611.8-3.484a2.8,2.8,0,0,1,2.474-.843c1.859.3,2.691,2.72,1.993,4.494a2.533,2.533,0,0,1-.166.344" transform="translate(-468.589 -293.691)"/>
      <path id="Path_58" data-name="Path 58" class="cls-5" d="M674.823,453.357a4.215,4.215,0,0,1,4.072-.525c.934.332,1.76.916,2.7,1.227a4.077,4.077,0,0,0,4.544-1.595,5.119,5.119,0,0,0,.311-2.99,17.527,17.527,0,0,0-.7-3.639c-.36-1.182-1.077-2.437-.619-3.7l3.115.688a2,2,0,0,1,1.417.772c.19.344-.376.822-.41,1.214a37.125,37.125,0,0,0,.3,6.347c.177,2.068.407,4.127.675,6.194a15.127,15.127,0,0,1-.153,5.993c-1.518,5.445-8.859,7.1-13.432,4.514a7.023,7.023,0,0,1-1.561-1.189q-.108-.11-.211-.226a9.079,9.079,0,0,1-2.166-5.843,9.393,9.393,0,0,1,.115-1.606,21.3,21.3,0,0,1,2-5.638" transform="translate(-437.299 -287.416)"/>
      <path id="Path_59" data-name="Path 59" class="cls-4" d="M687.832,477.476a7.449,7.449,0,0,0,1.97-1.319.53.53,0,0,0,0-.743.537.537,0,0,0-.743,0c-.135.126-.276.245-.42.36-.054.043.009-.008.029-.022l-.052.039-.118.087q-.112.081-.228.157a7.047,7.047,0,0,1-.969.534.524.524,0,0,0-.241.314.536.536,0,0,0,.053.4.529.529,0,0,0,.314.241.6.6,0,0,0,.4-.053" transform="translate(-446.619 -308.951)"/>
      <path id="Path_60" data-name="Path 60" class="cls-4" d="M523.655,364.956H624.31a26.628,26.628,0,0,1,10.1,1.827,25.173,25.173,0,0,1,13.45,13.092,27.342,27.342,0,0,1,2.09,11.219v46.586a45.255,45.255,0,0,1-.295,7.087,24.953,24.953,0,0,1-18.344,20.268,29.538,29.538,0,0,1-7.533.8h-5.166a.529.529,0,0,0-.506.665,50.74,50.74,0,0,0,8.035,14.763l.511-.877a48.1,48.1,0,0,1-19.433-9.477,49.229,49.229,0,0,1-3.869-3.486c-.453-.454-1.124-1.512-1.791-1.587a9.723,9.723,0,0,0-1.054,0H536.237q-6.188,0-12.377,0a24.942,24.942,0,0,1-23.745-16.681c-1.9-5.435-1.4-11.4-1.4-17.069V390.259a25.45,25.45,0,0,1,3.271-12.72,24.889,24.889,0,0,1,21.667-12.583.525.525,0,0,0,0-1.05,26.256,26.256,0,0,0-24.809,18.227c-1.574,5.033-1.179,10.437-1.179,15.645v41.656a31.815,31.815,0,0,0,.789,7.845,26.008,26.008,0,0,0,23.6,19.559c1.208.075,2.424.05,3.634.05H601.61l-.371-.154A49.548,49.548,0,0,0,626.377,481.4a.53.53,0,0,0,.511-.877,49.234,49.234,0,0,1-7.765-14.3l-.506.664c4.407,0,8.876.266,13.177-.892A26,26,0,0,0,651,440.591V406.516c0-5.612.048-11.226,0-16.837a25.987,25.987,0,0,0-24.067-25.7c-3.6-.268-7.273-.071-10.877-.071h-92.4a.525.525,0,0,0,0,1.05" transform="translate(-323.485 -236.516)"/>
      <path id="Path_61" data-name="Path 61" class="cls-4" d="M196.048,199.894c7.291,9.006,29.07,7.2,25.993-6.776-1.287-5.847-2.075-13.523-6.962-17.392a14.66,14.66,0,0,0-13.494-2.36c-9.383,3.051-11.725,16.267-6.675,24.884a13.3,13.3,0,0,0,1.138,1.644" transform="translate(-125.012 -112.237)"/>
      <path id="Path_62" data-name="Path 62" class="cls-5" d="M204.018,175.645c.052,2.6.069,9.231-3.345,11.452-.51.332.351-.5,0,0s-1.644-2.175-1.293-1.678a42.633,42.633,0,0,0-1.652,5.093,25.214,25.214,0,0,1-1.058,4.02,4.118,4.118,0,0,1-2.394,2.1,7.694,7.694,0,0,1-3.578.869c-1.244-.2-1.922-1.519-2.443-2.667a55.5,55.5,0,0,0-3.939-7.2,17.315,17.315,0,0,1-1.8-3.175,7.767,7.767,0,0,1,4.077-9.55,3.1,3.1,0,0,0,.863-.454,3.173,3.173,0,0,0,.707-1.28,9.04,9.04,0,0,1,5.282-4.771,22.348,22.348,0,0,1,7.195-1.163,42.25,42.25,0,0,1,7.643.288A3.541,3.541,0,0,1,210.7,168.6c.546.723.244,2.057-.659,2.126a3.322,3.322,0,0,1,3.163.762,1.944,1.944,0,0,1,.653,1.2c.1,1.237-1.376,1.961-2.607,2.118a11.468,11.468,0,0,1-6.549-1.12c.581.7-.22,1.69-.951,2.236" transform="translate(-118.361 -108.682)"/>
      <path id="Path_63" data-name="Path 63" class="cls-5" d="M261.119,215.466c-.128-.011-.257-.026-.386-.034a.548.548,0,0,0-.421.192c-.079.086-.152.175-.222.268a1.177,1.177,0,0,0-.231.556,1.1,1.1,0,0,0,.013.381.465.465,0,0,0,.025.084,1,1,0,0,0,.091.2.876.876,0,0,0,.319.3,1.088,1.088,0,0,0,.445.119,1,1,0,0,0,.308-.034,1.069,1.069,0,0,0,.288-.122,1.048,1.048,0,0,0,.242-.2,1.025,1.025,0,0,0,.173-.249,1.161,1.161,0,0,0,.112-.441.613.613,0,0,0,0-.1,1.406,1.406,0,0,0-.037-.232,1.041,1.041,0,0,0-.132-.3,1.232,1.232,0,0,0-.319-.322.525.525,0,0,0-.771.593l.053.125a.528.528,0,0,0,.188.188l.012.009-.106-.082a.563.563,0,0,1,.1.1l-.082-.106a.619.619,0,0,1,.072.125l-.053-.126a.651.651,0,0,1,.042.154l-.019-.14a.619.619,0,0,1,0,.144l.019-.139a.584.584,0,0,1-.037.14l.053-.125a.588.588,0,0,1-.067.114l.082-.106a.649.649,0,0,1-.1.1l.106-.082a.649.649,0,0,1-.127.075l.126-.053a.625.625,0,0,1-.156.043l.14-.019a.58.58,0,0,1-.133,0l.139.019a.58.58,0,0,1-.119-.03l.126.053a.458.458,0,0,1-.091-.051l.106.082a.409.409,0,0,1-.064-.064l.082.106a.445.445,0,0,1-.043-.075l.053.126a.49.49,0,0,1-.032-.113l.019.14a.583.583,0,0,1,0-.15l-.019.14a.637.637,0,0,1,.042-.149l-.053.125a1.019,1.019,0,0,1,.127-.211l-.082.106c.055-.07.115-.136.176-.2l-.371.154.4.035a.528.528,0,0,0,.371-.154.525.525,0,0,0,0-.743l-.106-.082a.522.522,0,0,0-.265-.072" transform="translate(-168.917 -140.043)"/>
      <path id="Path_64" data-name="Path 64" class="cls-5" d="M272.227,212.956a20.194,20.194,0,0,0,.667,3.455,12.952,12.952,0,0,0,1.028,2.777c.325.592,1.232.063.906-.53a11.74,11.74,0,0,1-.922-2.526,18.572,18.572,0,0,1-.63-3.176.539.539,0,0,0-.525-.525.529.529,0,0,0-.525.525" transform="translate(-176.962 -138.093)"/>
      <path id="Path_65" data-name="Path 65" class="cls-5" d="M258.536,206.808c.057-.029.115-.056.173-.084.11-.054-.054.017.051-.022s.21-.078.317-.11.216-.059.326-.082c.063-.013.126-.023.189-.034s.063-.009,0,0l.071-.008a3.944,3.944,0,0,1,.671-.01c.056,0,.112.01.167.015h0l.071.012q.177.031.351.078a.525.525,0,0,0,.279-1.012,4.5,4.5,0,0,0-3.2.352.528.528,0,0,0-.188.718.537.537,0,0,0,.718.188" transform="translate(-167.55 -133.523)"/>
      <path id="Path_66" data-name="Path 66" class="cls-4" d="M225.673,224.347c1.391,1.718,5.547,1.374,4.96-1.293-.246-1.116-.4-2.58-1.328-3.318a2.8,2.8,0,0,0-2.575-.45c-1.79.582-2.237,3.1-1.273,4.748a2.5,2.5,0,0,0,.217.314" transform="translate(-146.237 -142.46)"/>
      <path id="Path_67" data-name="Path 67" class="cls-5" d="M257.366,235.534a11.175,11.175,0,0,0-2.877-1.585,1.651,1.651,0,0,0-1.35-.067,1.4,1.4,0,0,0-.6,1.14,3.955,3.955,0,0,0,.853,2.668,2.684,2.684,0,0,0,.85.781,1.379,1.379,0,0,0,1.123.111c.613-.234.88-.937,1.077-1.563a4.7,4.7,0,0,0,.307-1.682" transform="translate(-164.159 -151.959)"/>
      <path id="Path_68" data-name="Path 68" class="cls-4" d="M712.641,69.32c-3.722,10.973-24.776,16.824-26.73,2.645-.818-5.931-2.737-13.405.508-18.726a14.658,14.658,0,0,1,11.842-6.887c9.859-.387,16.633,11.2,14.879,21.032a13.3,13.3,0,0,1-.5,1.937" transform="translate(-445.03 -30.125)"/>
      <path id="Path_69" data-name="Path 69" class="cls-5" d="M690.99,61.088c-3.215-2.726-7.125-7.566-7.56-11.759a20.5,20.5,0,0,1-4.9,4.09A4.1,4.1,0,0,0,676.568,57a3.676,3.676,0,0,0,.036.437c-1.681-1-3.72-2.616-3.7-4.571a5.01,5.01,0,0,1,1.235-2.831,34.228,34.228,0,0,1,6.019-6.183c2.1-1.68,4.519-3.3,7.235-3.584a4.326,4.326,0,0,1,1.927.166c.317.115.614.285.94.369a4.323,4.323,0,0,0,1.755-.075,13.849,13.849,0,0,1,8.345,1.21,12.008,12.008,0,0,1,5.743,6.111c1.642,4.045.586,11.371-.292,15.647a2.311,2.311,0,0,1-.457,1.136,2.338,2.338,0,0,1-1.921.45c-3.862-.252-7.437-2.283-11.187-3.24" transform="translate(-437.43 -26.154)"/>
      <path id="Path_70" data-name="Path 70" class="cls-5" d="M721.213,14.756A10.653,10.653,0,0,1,729.2,11.2c2.341.024,4.637.829,6.976.719a9.094,9.094,0,0,0,6.669-3.471c.857-1.108,1.444-2.4,2.291-3.52a9.57,9.57,0,0,1,9.874-3.371c2.092.566,4.123,1.87,6.253,1.472,1.552-.29,2.783-1.434,4.189-2.152a9.441,9.441,0,0,1,10.04,1.405,13.081,13.081,0,0,1,4.38,9.463,21.632,21.632,0,0,1-2.439,10.339c-4.715,9.682-14.333,16.593-24.851,18.9s-20.726-.166-30.236-5.219" transform="translate(-468.831 0)"/>
      <path id="Path_71" data-name="Path 71" class="cls-5" d="M695.52,100.721l.363-.171h-.53a2.1,2.1,0,0,1,.322.188l-.106-.082a.823.823,0,0,1,.147.144l-.082-.106a.643.643,0,0,1,.068.117l-.053-.125a.591.591,0,0,1,.037.129c-.006-.047-.013-.093-.018-.14a.483.483,0,0,1,0,.117l.019-.14a.439.439,0,0,1-.022.084l.053-.125a.419.419,0,0,1-.044.078l.082-.106a.48.48,0,0,1-.075.076l.106-.082a.546.546,0,0,1-.115.068l.125-.053a.615.615,0,0,1-.131.036l.139-.019a.626.626,0,0,1-.164,0l.14.019a.655.655,0,0,1-.145-.039l.125.053a.615.615,0,0,1-.13-.075l.106.082a.577.577,0,0,1-.088-.087l.082.106a.58.58,0,0,1-.072-.122l.053.125a.621.621,0,0,1-.041-.15c.006.047.012.093.019.14a.645.645,0,0,1,0-.156l-.019.139a.609.609,0,0,1,.041-.15l-.053.126a.582.582,0,0,1,.048-.087.525.525,0,0,0-.593-.771.576.576,0,0,0-.314.241.583.583,0,0,0-.045.08,1.338,1.338,0,0,0-.081.205,1.445,1.445,0,0,0-.034.216.628.628,0,0,0,0,.1,1.067,1.067,0,0,0,.19.594,1.182,1.182,0,0,0,.3.3,1.057,1.057,0,0,0,.279.126,1.11,1.11,0,0,0,.308.044.621.621,0,0,0,.089-.006,1.3,1.3,0,0,0,.22-.036.95.95,0,0,0,.285-.134,1.013,1.013,0,0,0,.168-.139.889.889,0,0,0,.133-.182.927.927,0,0,0,.109-.426,1.192,1.192,0,0,0-.026-.22.568.568,0,0,0-.029-.1,1.446,1.446,0,0,0-.089-.2,1.428,1.428,0,0,0-.134-.18,1.333,1.333,0,0,0-.253-.218,1.545,1.545,0,0,0-.186-.115l-.094-.049a1.119,1.119,0,0,0-.154-.068.536.536,0,0,0-.279,0l-.126.053c-.121.056-.241.114-.362.171a.529.529,0,0,0-.241.314.537.537,0,0,0,.053.4.53.53,0,0,0,.314.241l.14.019a.522.522,0,0,0,.265-.072" transform="translate(-451.555 -64.728)"/>
      <path id="Path_72" data-name="Path 72" class="cls-5" d="M684.23,101.392a18.55,18.55,0,0,1,.521,3.2,13.136,13.136,0,0,1,.022,2.685.542.542,0,0,0,.366.646.528.528,0,0,0,.646-.367,12.857,12.857,0,0,0,.015-2.964,20.211,20.211,0,0,0-.559-3.475.525.525,0,0,0-1.012.279" transform="translate(-444.778 -65.487)"/>
      <path id="Path_73" data-name="Path 73" class="cls-5" d="M691.244,90.187a4.38,4.38,0,0,0-2.994.76.536.536,0,0,0-.188.718.531.531,0,0,0,.718.188,3.941,3.941,0,0,1,.591-.345l.083-.038c-.055.023-.055.022,0,0s.114-.044.171-.064q.162-.056.329-.1c.111-.028.223-.048.336-.07.062-.009.06-.009,0,0l.091-.01.159-.013a3.915,3.915,0,0,1,.707.022.526.526,0,0,0,.525-.525.541.541,0,0,0-.525-.525" transform="translate(-447.233 -58.608)"/>
      <path id="Path_74" data-name="Path 74" class="cls-4" d="M726.564,96.7c-.71,2.094-4.728,3.21-5.1.5-.156-1.132-.522-2.558.1-3.573a2.8,2.8,0,0,1,2.26-1.314c1.881-.074,3.174,2.137,2.839,4.013a2.562,2.562,0,0,1-.1.37" transform="translate(-468.831 -60.013)"/>
      <path id="Path_75" data-name="Path 75" class="cls-5" d="M540.726,6.081H641.38a26.628,26.628,0,0,1,10.1,1.827A25.173,25.173,0,0,1,664.936,21a27.342,27.342,0,0,1,2.09,11.219V78.806a45.255,45.255,0,0,1-.295,7.087,24.953,24.953,0,0,1-18.344,20.268,29.535,29.535,0,0,1-7.532.8h-5.167a.529.529,0,0,0-.506.665,50.739,50.739,0,0,0,8.035,14.763l.511-.877a48.1,48.1,0,0,1-19.433-9.477,49.19,49.19,0,0,1-3.869-3.486c-.453-.454-1.124-1.512-1.791-1.587a9.722,9.722,0,0,0-1.054,0H553.308q-6.188,0-12.377,0a24.942,24.942,0,0,1-23.745-16.681c-1.9-5.435-1.4-11.4-1.4-17.069V31.384a25.45,25.45,0,0,1,3.271-12.72A24.889,24.889,0,0,1,540.726,6.081a.525.525,0,0,0,0-1.05,26.256,26.256,0,0,0-24.809,18.227c-1.574,5.033-1.179,10.437-1.179,15.645V80.56a31.815,31.815,0,0,0,.789,7.845,26.008,26.008,0,0,0,23.6,19.559c1.208.075,2.424.05,3.634.05h75.923l-.371-.154a49.548,49.548,0,0,0,25.138,14.666.53.53,0,0,0,.511-.877,49.233,49.233,0,0,1-7.765-14.3l-.506.664c4.408,0,8.877.266,13.177-.892a26,26,0,0,0,19.211-25.4V47.641c0-5.612.048-11.226,0-16.837A25.987,25.987,0,0,0,644.008,5.1c-3.6-.268-7.274-.071-10.877-.071h-92.4a.525.525,0,0,0,0,1.05" transform="translate(-334.582 -3.225)"/>
      <path id="Path_76" data-name="Path 76" class="cls-5" d="M701.051,117.644a4.685,4.685,0,0,0,1.49-2.992.525.525,0,1,0-1.05,0c0,.056,0,.112,0,.168,0,.035-.006.069-.009.1,0,.076.018-.091,0-.016-.024.115-.047.229-.082.341-.017.052-.036.1-.055.156s-.008.03.006-.01a.918.918,0,0,1-.043.1c-.051.108-.108.214-.169.317s-.12.195-.185.289c-.037.054-.075.106-.113.159l-.052.07c-.046.063.051-.064,0,0-.156.2-.318.389-.483.579a.525.525,0,1,0,.742.742" transform="translate(-455.145 -74.189)"/>
      <path id="Path_77" data-name="Path 77" class="cls-5" d="M792.311,177.934c-3.454-5.319-7.855-10.043-12.21-14.692-6.331-6.758-9.139-15.666-17.4-19.856a39.972,39.972,0,0,0-14.318-4.14,20.353,20.353,0,0,1-4.607-.7,26.145,26.145,0,0,1-6.716-3.645l-10.887,8.542a5.611,5.611,0,0,1-.172,3.182c-.652,1.714-2.229,2.871-3.716,3.946-2.627,1.9-5.308,3.948-6.772,6.839a21.335,21.335,0,0,0-1.725,7.371q-1.435,12.931-2.87,25.863c-.048.435-.094.873-.127,1.312h35.363a48.8,48.8,0,0,0,24.907,14.531,49.288,49.288,0,0,1-7.9-14.531h6.4a25.456,25.456,0,0,0,22.747-14.024" transform="translate(-462.058 -87.694)"/>
      <path id="Path_78" data-name="Path 78" class="cls-5" d="M208.631,300.684c5.778,2.906,12.8,5.716,19.089,2.558,1.413-.71,2.936-1.9,2.886-3.646a.525.525,0,0,0-1.05,0c.039,1.374-1.347,2.236-2.432,2.772a11.957,11.957,0,0,1-4.169,1.138,19.753,19.753,0,0,1-8.834-1.472,53.821,53.821,0,0,1-4.961-2.257c-.6-.3-1.134.6-.53.906" transform="translate(-135.449 -194.426)"/>
      <path id="Path_79" data-name="Path 79" class="cls-5" d="M239.333,588.8a5.979,5.979,0,0,0,3.872,1.668.528.528,0,0,0,.525-.525.537.537,0,0,0-.525-.525c-.077,0-.153-.008-.229-.015l-.114-.011c-.019,0-.087-.01-.031,0-.151-.02-.3-.05-.451-.084s-.3-.076-.442-.123c-.073-.023-.145-.049-.217-.075s-.155-.061-.167-.066a5.326,5.326,0,0,1-.805-.438,4.285,4.285,0,0,1-.674-.547.525.525,0,0,0-.742.742" transform="translate(-155.483 -382.173)"/>
      <path id="Path_80" data-name="Path 80" class="cls-5" d="M619.915,261.75q-1.992-7.311-3.289-14.788a3.752,3.752,0,0,1,0-1.9,2.935,2.935,0,0,1,1.182-1.36,6.515,6.515,0,0,1,6.066-.617,12.533,12.533,0,0,1,2.632,1.648c7.483,5.619,12.7,10.841,19.62,17.146" transform="translate(-400.764 -157.711)"/>
      <path id="Path_81" data-name="Path 81" class="cls-4" d="M68.207,492.917c-19.782,7.151-33.012-21.628-35.353-36.072-2.172-13.4-3.6-28.093,1.4-41.046.774-2,1.65-4.418.366-6.141-1.363-1.828-4.258-1.5-6.232-.36-5.274,3.054-7.095,9.666-8.352,15.629-2.581,12.246-4.777,24.734-3.881,37.217,1.977,27.543,16.959,54.461,41.214,66.468" transform="translate(-10.371 -265.461)"/>
      <path id="Path_82" data-name="Path 82" class="cls-4" d="M31.987,402.035q.244-5.615.685-11.219a6.461,6.461,0,0,1,.549-2.521A2.231,2.231,0,0,1,35.3,387a2.137,2.137,0,0,1,3.362-1.772,2.155,2.155,0,0,1,2.642-1.933,1.312,1.312,0,0,0,.693.115,1.043,1.043,0,0,0,.475-.374,11.055,11.055,0,0,1,4.783-3.2c.689-.232,1.678-.255,1.9.437a1.482,1.482,0,0,1-.352,1.2q-1.727,2.617-3.664,5.088a1.424,1.424,0,0,1,1.912-.247,3.61,3.61,0,0,1,1.228,1.712c.78,1.823,1.241,3.993.3,5.736a8.056,8.056,0,0,1-1.548,1.846l-4.967,4.845" transform="translate(-20.793 -246.817)"/>
      <path id="Path_83" data-name="Path 83" class="cls-5" d="M53.194,643.245a9.448,9.448,0,0,0,3.538-1.924c1.237-.969,2.439-1.987,3.635-3.006s2.395-2.069,3.57-3.129c1.079-.973,2.171-1.943,3.157-3.013a12.792,12.792,0,0,0,2.524-3.826c.254-.625-.761-.9-1.012-.279-1,2.467-3.108,4.288-5.034,6.035q-3.327,3.018-6.812,5.858a10.061,10.061,0,0,1-3.844,2.272c-.656.159-.378,1.172.279,1.012" transform="translate(-34.154 -408.055)"/>
      <path id="Path_84" data-name="Path 84" class="cls-5" d="M162.024,652.631c1.24,4.262,5.4,6.946,9.332,8.45,4.243,1.625,9.117,1.836,13.164-.448a11.163,11.163,0,0,0,4.658-4.882c.286-.608-.619-1.141-.906-.53a11.155,11.155,0,0,1-9.129,6.013,18.373,18.373,0,0,1-12.306-3.781,10.086,10.086,0,0,1-3.8-5.1.525.525,0,0,0-1.012.279" transform="translate(-105.31 -423.828)"/>
      <path id="Path_85" data-name="Path 85" class="cls-5" d="M300.948,759.407a53.219,53.219,0,0,0,8.165-9.77.525.525,0,0,0-.907-.53,52.091,52.091,0,0,1-8,9.557c-.475.482.267,1.225.742.742" transform="translate(-195.052 -486.801)"/>
      <path id="Path_86" data-name="Path 86" class="cls-5" d="M357.9,343.081a63.21,63.21,0,0,1-4.783,15.992q-.984,2.176-2.13,4.274c-.324.593.583,1.124.906.53a64.236,64.236,0,0,0,6.07-15.755q.566-2.362.949-4.761c.106-.661-.905-.946-1.012-.279" transform="translate(-228.12 -222.776)"/>
      <path id="Path_87" data-name="Path 87" class="cls-4" d="M449.746,260.264c.24-3.051-.119-6.135.26-9.171a19.051,19.051,0,0,1,2.372-7.1,3.97,3.97,0,0,1,1.277-1.5,1.574,1.574,0,0,1,1.85.068,2.318,2.318,0,0,1,.4,2.014,37.664,37.664,0,0,1-.918,4.755,7.4,7.4,0,0,1,2.528,9.361" transform="translate(-292.362 -157.465)"/>
      <path id="Path_88" data-name="Path 88" class="cls-4" d="M461.22,245.576a29.876,29.876,0,0,1,9.412-9.155c.634-.388,1.644-.656,1.968.013.215.447-.094.957-.39,1.356l-4.264,5.74q2.272-2.028,4.675-3.9c.671-.524,1.92-.874,2.138-.051a1.333,1.333,0,0,1-.421,1.095l-4.206,5.234,4.457-3.769a1.354,1.354,0,0,1,1.036-.45c.828.15.626,1.4.187,2.121a35.231,35.231,0,0,1-3.942,5.27l3.451-2.443a1.506,1.506,0,0,1,1-.388,1.027,1.027,0,0,1,.773,1.107,2.968,2.968,0,0,1-.56,1.359,43.938,43.938,0,0,1-5.612,7.6,16.311,16.311,0,0,1-8.028,4.754" transform="translate(-299.82 -153.431)"/>
      <path id="Path_89" data-name="Path 89" class="cls-4" d="M599.943,231.5l-2.953-1.871c-1.279-.81-2.73-1.971-2.5-3.468a1.671,1.671,0,0,0,.048-.693,1.962,1.962,0,0,0-.443-.615,1.527,1.527,0,0,1,.455-2.191,3.378,3.378,0,0,1-1.322-1.6c-.188-.679.267-1.565.97-1.526a1.606,1.606,0,0,1-.936-2.271c.613-1.026,2.086-.989,3.27-.825a22.77,22.77,0,0,1,6.005,1.4,7.676,7.676,0,0,1,4.306,4.2,8.685,8.685,0,0,1-.029,5.053c-.4,1.56-1.162,3.221-2.659,3.815-1.206.479-2.657.157-3.78.808" transform="translate(-385.529 -140.642)"/>
      <path id="Path_90" data-name="Path 90" class="cls-5" d="M586.045,189.788l-5.285-17.2a1.321,1.321,0,0,0-.514-.831,1.29,1.29,0,0,0-.659-.1,45.959,45.959,0,0,0-10.85,1.588,1.724,1.724,0,0,0-.817.391c-.431.445-.278,1.172-.1,1.764l5.7,18.549a2.517,2.517,0,0,0,3.474,2.238l6.745-1.148a3.063,3.063,0,0,0,1.3-.433,1.047,1.047,0,0,0,.429-1.206c.6.331,1.389-.555.99-1.113" transform="translate(-369.001 -111.588)"/>
      <path id="Path_91" data-name="Path 91" class="cls-4" d="M612.692,234.013a4.429,4.429,0,0,0,4.873.309,7.691,7.691,0,0,0,3.25-3.917,8.831,8.831,0,0,0,.1-7.143,5.657,5.657,0,0,0-6.011-3.224,1.134,1.134,0,0,0-.564.258c-.431.424-.091,1.148.27,1.633q.861,1.156,1.8,2.253c-1.665.17-2.014,1.871-2.984,3.234-.86,1.208-2.269,1.762-1.364,2.936" transform="translate(-397.687 -142.968)"/>
      <path id="Path_92" data-name="Path 92" class="cls-5" d="M616.14,218.585a2.473,2.473,0,0,0-.225,3.1,5.01,5.01,0,0,0,.807.97c.343.325.907.614,1.1,1.067l.506-.664a3.069,3.069,0,0,0-2.655,2.145.529.529,0,0,0,.366.646.537.537,0,0,0,.646-.367,1.987,1.987,0,0,1,1.643-1.375c.3-.011.644-.333.506-.665-.359-.862-1.192-1.267-1.769-1.958a1.616,1.616,0,0,1-.179-2.158.542.542,0,0,0,0-.742.528.528,0,0,0-.742,0" transform="translate(-400.094 -141.994)"/>
      <path id="Path_93" data-name="Path 93" class="cls-5" d="M465.5,254.542a6.245,6.245,0,0,1-.226.836,1.359,1.359,0,0,0,.152,1c.32.514.9.837,1.28,1.312a4.943,4.943,0,0,1,1.047,3.34c-.036.675,1.014.673,1.05,0a5.937,5.937,0,0,0-.977-3.575,6.471,6.471,0,0,0-1.222-1.339c-.218-.185-.365-.306-.283-.6a4.464,4.464,0,0,0,.229-.97c.036-.675-1.014-.673-1.05,0" transform="translate(-302.437 -165.139)"/>
      <path id="Path_94" data-name="Path 94" class="cls-5" d="M477.811,255.9l.48.48a.54.54,0,0,0,.742,0l.082-.106a.522.522,0,0,0,.072-.265q-.01-.07-.019-.14a.527.527,0,0,0-.135-.232l-.48-.48a.389.389,0,0,0-.169-.108.473.473,0,0,0-.4,0,.39.39,0,0,0-.169.108l-.082.106a.522.522,0,0,0-.071.265c.006.047.012.093.019.14a.527.527,0,0,0,.135.232" transform="translate(-310.505 -165.77)"/>
      <path id="Path_95" data-name="Path 95" class="cls-5" d="M484.674,263.8l.24.24a.39.39,0,0,0,.169.108.472.472,0,0,0,.4,0,.39.39,0,0,0,.169-.108l.082-.106a.523.523,0,0,0,.072-.265l-.019-.14a.526.526,0,0,0-.135-.232l-.24-.24a.389.389,0,0,0-.169-.108.472.472,0,0,0-.4,0,.39.39,0,0,0-.169.108l-.082.106a.522.522,0,0,0-.071.265c.006.047.012.093.019.14a.527.527,0,0,0,.135.232" transform="translate(-314.967 -170.9)"/>
      <path id="Path_96" data-name="Path 96" class="cls-5" d="M490.164,271l.24.24a.39.39,0,0,0,.169.108.472.472,0,0,0,.4,0,.39.39,0,0,0,.169-.108l.082-.106a.523.523,0,0,0,.072-.265l-.019-.14a.526.526,0,0,0-.135-.232l-.24-.24a.389.389,0,0,0-.169-.108.472.472,0,0,0-.4,0,.39.39,0,0,0-.169.108l-.082.106a.526.526,0,0,0-.071.265l.019.14a.527.527,0,0,0,.135.232" transform="translate(-318.536 -175.584)"/>
      <path id="Path_97" data-name="Path 97" class="cls-5" d="M59.291,397.231a1.625,1.625,0,0,0-1.491,1.735c.053,1.1.9,1.793,1.467,2.641l.314-.771a7.611,7.611,0,0,0-5.663,6.215.544.544,0,0,0,.367.646.528.528,0,0,0,.646-.366,6.6,6.6,0,0,1,4.93-5.481.528.528,0,0,0,.314-.771c-.351-.522-.826-.965-1.126-1.519-.182-.337-.391-1.234.244-1.277.67-.045.676-1.095,0-1.05" transform="translate(-35.044 -258.223)"/>
      <path id="Path_98" data-name="Path 98" class="cls-5" d="M44.773,412.1a3.164,3.164,0,0,0,1.595-1.849A.529.529,0,0,0,46,409.6a.537.537,0,0,0-.646.367c-.022.067-.047.132-.074.2l.053-.125a2.707,2.707,0,0,1-.343.582l.082-.106a2.758,2.758,0,0,1-.479.477l.106-.082a2.7,2.7,0,0,1-.457.28A.529.529,0,0,0,44,411.5a.536.536,0,0,0,.053.4.53.53,0,0,0,.314.241.587.587,0,0,0,.4-.053" transform="translate(-28.592 -266.256)"/>
      <path id="Path_99" data-name="Path 99" class="cls-5" d="M53.976,404.973q-.007.07-.016.141l.019-.14a3.349,3.349,0,0,1-.222.816l.053-.125a3.323,3.323,0,0,1-.408.709.525.525,0,0,0-.053.4.525.525,0,0,0,.646.367.615.615,0,0,0,.314-.241,3.777,3.777,0,0,0,.717-1.931.528.528,0,0,0-.154-.371.525.525,0,0,0-.743,0,.6.6,0,0,0-.154.371" transform="translate(-34.669 -262.915)"/>
      <path id="Path_100" data-name="Path 100" class="cls-5" d="M62.2,404.1a2.336,2.336,0,0,0,.372-.332,2.4,2.4,0,0,0,.289-.407,2.362,2.362,0,0,0,.279-.961.528.528,0,0,0-.154-.371.525.525,0,0,0-.742,0,.585.585,0,0,0-.154.371c0,.032-.006.064-.01.1l.019-.139a1.782,1.782,0,0,1-.122.444l.053-.126a1.853,1.853,0,0,1-.222.382l.082-.106a1.773,1.773,0,0,1-.311.314l.106-.082-.015.012a.575.575,0,0,0-.241.314.536.536,0,0,0,.053.4.53.53,0,0,0,.314.241.509.509,0,0,0,.4-.053" transform="translate(-39.924 -261.239)"/>
    </g>
  </g>
</svg>
